Patient4_TMGait_0pt4_03_left_40_EMG.mot
version=1
nRows=39
nColumns=33
inDegrees=no
endheader
time	1LAddLong	2LGlutMax	3LGlutMed	4LIliopsoas	5LSemiMemb	6LBicFemLong	7LRecFem	8LVastMed	9LVastLat	10LGasMed	11LTibAnt	12lTibPost	13LPeroneusLong	14LSol	15LExtDigLong	16LFlexDigLong	17RAddLong	18RGlutMax	19RGlutMed	20RIliopsoas	21RSemiMemb	22RBicFemLong	23RRecFem	24RVastMed	25RVastLat	26RGasMed	27RTibAnt	28RTibPost	29RPeroneusLong	30RSol	31RExtDigLong	32RFlexDigLong
54.373	0.002289	0.1326	-0.002441	0.009003	0.022888	-0.06546	-0.053253	-0.006409	0.06485	-0.020905	0.051422	0.006561	0.001526	-0.09964	0.25085	0.00946	0.04303	-0.023956	0.71304	-0.0914	-0.19165	0.017395	0.096283	-0.13229	-0.024872	0.023956	-0.10696	-0.025177	-0.24628	-0.089874	0.000916	-0.011444
54.374	-0.020447	0.081635	-0.033875	0.001526	-0.003357	-0.04837	-0.03952	0.002747	0.063782	-0.040588	-0.006866	0.007782	0.019073	-0.048981	0.64362	0.015106	0.065155	-0.11017	0.76309	-0.029602	-0.40344	0.007782	0.13428	-0.11185	-0.031586	0.017853	-0.030975	-0.021515	-0.097351	0.20233	0.003052	-0.005798
54.375	0.02243	0.0914	-0.039215	0.000305	-0.039673	-0.038605	-0.02533	0.013123	0.066223	-0.045319	-0.001221	0.004425	0.020599	-0.087128	-0.56381	0.012817	0.039673	-0.17303	0.64407	0.066833	-0.49515	0.05188	-0.061798	-0.12054	-0.067749	0.009155	0.091553	-0.015564	0.34897	0.20432	0.001526	-0.007019
54.376	0.03891	0.095062	-0.053558	-0.002441	-0.051575	-0.062256	-0.0177	0.005341	0.06424	-0.056305	-0.05661	-0.003052	0.012054	-0.1535	-0.51865	0.017548	-0.013275	-0.1033	0.36972	0.07431	0.15137	0.090637	-0.1181	-0.012054	-0.096283	0.00061	0.10468	-0.003357	0.31479	0.12787	0.003967	-0.015717
54.377	-0.005646	0.086823	-0.06958	-0.007629	-0.041809	-0.11444	-0.027313	0.007477	0.068054	-0.047913	-0.057678	0.007629	0.009155	-0.17716	-0.39215	0.014954	0.012207	-0.061493	-0.093842	0.031738	0.31006	0.037842	-0.11459	-0.092163	-0.012512	0.011292	0.045776	-0.002136	0.32105	-0.075531	0.014038	-0.007324
54.378	-0.004425	0.098114	-0.10468	0.008087	-0.033417	-0.1506	-0.032654	0.003357	0.080414	-0.066223	0.052338	0.01297	0.043945	-0.16342	-0.2478	0.021667	-0.014496	-0.022583	-0.046539	-0.020294	0.18707	0.076294	-0.020447	-0.057831	-0.040741	-0.000458	-0.30228	-0.004425	0.28183	-0.1387	0.00351	-0.000305
54.379	0.021973	0.095215	-0.16022	0.006866	0.049286	-0.1088	-0.024261	-0.00061	0.061493	-0.045776	0.074921	-0.002747	0.041656	-0.12512	-0.10941	0.022583	-0.055847	-0.045624	0.37506	-0.037689	0.079956	0.027161	-0.024719	0.060577	-0.035706	-0.005493	-0.41687	-0.002594	0.10635	-0.048828	0.003815	-0.014038
54.38	0.009155	0.082855	-0.15381	0.018158	0.054016	-0.051422	-0.030365	0.051575	0.063934	-0.000153	-0.065155	0.005951	0.011597	-0.13306	0.035858	0.025024	-0.04303	-0.12726	0.26581	-0.042419	-0.027924	-0.034637	-0.068512	0.054169	-0.022583	-0.016937	-0.30289	-0.009155	-0.077972	-0.019226	-0.00061	-0.013428
54.381	0.012665	0.070038	-0.069427	-0.010071	0.030823	-0.052338	-0.01236	0.025635	0.053711	0.044403	-0.099182	0.002289	-0.036011	-0.1062	0.48218	0.037689	-0.019989	-0.07309	0.09491	-0.031281	0.001984	-0.017853	-0.025024	0.027924	0.007324	-0.011597	-0.19653	-0.002441	-0.088959	-0.057831	0.003967	-0.009766
54.382	0.016785	0.062256	0.005798	0.002441	0.016937	-0.060425	-0.023804	0.015259	0.050201	0.039063	-0.066071	0.004883	-0.009155	-0.069275	0.049133	0.034943	-0.018616	-0.032349	0.14999	-0.046387	-0.036621	0.005951	-0.05661	0.020599	0.029297	-0.01236	-0.14847	-0.005188	0.051422	-0.045929	0.001678	-0.010223
54.383	0.00885	0.052948	0.11231	0.006256	0.002289	-0.056458	-0.022736	-0.000763	0.043335	0.015869	-0.005951	0.007782	0.016632	-0.062866	0.15457	0.041962	-0.012817	-0.051422	-0.021973	0.016479	0.03006	0.065308	-0.089569	0.018311	0.033417	-0.010223	-0.084839	-0.009308	0.34454	0.000458	0.00351	-0.014038
54.384	0.000305	0.021057	0.10223	0.00061	-0.012054	-0.016479	-0.021362	0.009155	0.036469	0.007782	0.12604	0.000763	-0.029144	-0.089417	-0.17334	0.031738	-0.000916	-0.1622	0.13992	0.014801	0.073395	0.019989	-0.055389	-0.012512	0.012207	-0.015259	0.13443	-0.003815	-0.10254	-0.014496	0.003967	-0.005646
54.385	0.000763	-0.000763	0.074768	-0.029755	-0.00351	-0.033722	0.004425	0.003357	0.046387	-0.044403	0.11704	0.002289	0.005951	-0.11749	-0.27832	0.03891	0.011749	-0.17853	0.012054	-0.007782	0.077972	-0.017242	-0.079803	-0.060577	-0.005951	0.011444	0.21118	-0.003967	-0.61493	-0.023499	0.004272	-0.005493
54.386	-0.009918	0.019989	0.037537	0	0.009003	-0.034332	0.003052	0.004578	0.051422	-0.019836	0.13351	0.001678	-0.022736	-0.16464	-0.016022	0.029602	-0.000916	-0.20752	0.30228	-0.091553	0.038757	0.001068	-0.044861	-0.017548	-0.023956	0.016174	0.059814	-0.003204	-0.001526	-0.047302	0.003052	-0.00412
54.387	-0.019379	0.056763	0.068665	0.000763	0.007782	-0.017395	-0.013885	0.005951	0.055084	-0.016022	0.099945	-0.007172	-0.013733	-0.16708	-0.001526	0.028992	-0.005035	-0.13687	-0.050659	-0.1236	-0.046082	0.036926	-0.053406	-0.057373	-0.003815	0.000458	0.19455	-0.002136	-0.88745	-0.007324	0.003357	-0.011902
54.388	-0.015106	0.008698	0.059357	-0.000916	-0.000153	-0.031433	0.006104	0.007324	0.057678	-0.017395	0.069885	0.001678	0.004578	-0.1831	0.017548	0.028687	0.011597	-0.18967	-0.21545	-0.15656	0.011902	-0.010376	0.001526	-0.019226	0.005798	-0.014954	0.20966	-0.00351	-0.90347	0.14038	0.005646	-0.023346
54.389	-0.006104	0.020447	0.017548	0.011749	-0.026703	-0.025635	-0.001831	0.000458	0.064087	-0.042114	0.05661	-0.000916	0.035858	-0.12054	0.014801	0.036316	-0.001831	-0.16907	0.016632	-0.075531	0.080261	-0.028229	-0.063171	-0.017548	0.009308	-0.013428	0.074158	-0.003662	0.50552	0.1416	0.006714	-0.019989
54.39	-0.00824	0.010681	0.003052	0.011597	-0.027466	-0.078888	-0.019836	0.007324	0.06134	-0.032501	0.1181	0.003357	-0.062714	-0.078735	0.02594	0.024109	0.009308	-0.18921	0.31372	-0.076294	0.052795	-0.02243	-0.021515	-0.055695	0.019684	-0.011749	0.004272	-0.005646	0.17563	0.029755	0.005035	-0.016479
54.391	0.000763	0.016632	-0.004883	0.004883	-0.005798	-0.090637	-0.011597	0.005188	0.062408	-0.027466	0.087433	-0.00824	-0.037689	-0.13382	0.078125	0.019531	0.007019	-0.12405	0.50186	-0.017242	-0.001373	-0.013428	-0.021515	-0.010223	0.028381	-0.014801	-0.029602	-0.001526	-0.80749	0.08194	0.005646	-0.018921
54.392	0.012512	0.015106	-0.048676	0.021515	0.037537	-0.058136	0.006866	0.003052	0.067596	-0.03006	-0.041504	0.002899	-0.002594	-0.16174	0.088043	0.015259	0.01358	-0.089569	0.37918	0.20142	-0.032349	-0.01236	-0.049744	0.040283	0.028381	-0.010986	-0.20859	-0.008698	0.16846	-0.028381	0.003204	-0.019684
54.393	-0.005646	0.008698	-0.057831	0.002136	0.028992	-0.056305	0.009918	0.000916	0.05188	-0.020447	-0.065613	-0.004425	0.005188	-0.067749	-0.009308	0.015717	0.00946	-0.10635	0.18021	0.35141	0.002747	0.006256	-0.067749	0.046539	0.019684	-0.012817	-0.10666	-0.004578	0.088654	-0.077362	0.001831	-0.016174
54.394	-0.000763	0.023499	0.008545	0.003204	-0.006409	-0.016632	0.006256	0.012207	0.054626	-0.017395	-0.11658	-0.006409	0.020752	-0.054779	-0.025482	0.018005	0.009918	-0.091858	0.18524	0.23377	0.024261	0.012054	-0.067596	0.002136	-0.027008	-0.008698	-0.095825	-0.003357	0.80109	-0.035706	0.004272	-0.02121
54.395	0.006714	0.044708	0.023193	-0.00061	-0.050507	-0.018005	-0.010529	0.001373	0.069885	-0.041809	-0.069275	-0.004425	0.006104	-0.032806	0.027466	0.025787	0.014648	-0.095978	0.050812	0.14404	0.007172	0.040283	-0.075836	-0.015106	-0.042572	-0.008087	-0.019531	-0.003204	0.42877	-0.051117	0.003967	-0.014191
54.396	0.009918	0.029907	-0.024872	0.006409	-0.082397	-0.058746	-0.02533	-0.003204	0.0737	-0.032043	-0.019531	0.001068	-0.014801	-0.026703	0.032654	0.023499	0.001526	-0.14801	-0.18585	0.071564	0.008545	0.056	-0.16785	-0.089417	-0.01236	-0.005798	0.06012	-0.005341	0.03418	-0.12619	-0.001068	-0.014496
54.397	0.016632	0.03418	-0.015717	-0.000305	-0.049744	-0.063934	-0.019989	-0.006409	0.074158	-0.016327	-0.056915	-0.004578	-0.015106	-0.055389	-0.040588	0.019073	0.003815	-0.11337	-0.20279	0.005798	0.007019	0.039978	-0.16388	-0.013123	0.008392	-0.011902	0.091248	-0.007629	-0.20294	-0.08667	0.001678	-0.005493
54.398	0.005493	0.023193	-0.045624	0.005646	0.042114	-0.078278	-0.027313	-0.005951	0.079803	-0.005951	-0.080872	-0.005646	-0.026855	-0.071716	-0.10239	0.019684	0.010071	-0.11597	-0.4245	0.066071	-0.00824	0.016632	-0.1062	-0.011749	-0.003967	-0.010376	0.2211	-0.009308	-0.27359	-0.015259	0.005341	0.005341
54.399	0.003662	0.029755	-0.065613	0.012665	0.053101	-0.074463	-0.009613	-0.001068	0.07309	-0.029602	-0.061951	-0.000763	0.041656	-0.079651	-0.029602	0.019836	0.002441	-0.05127	-0.45944	0.023651	0.002289	0.010376	-0.073853	-0.011902	-0.006866	-0.016479	0.61478	-0.005646	0.4306	-0.040741	0.003204	-0.002441
54.4	0.015411	0.006714	-0.040741	0.019073	0.02655	-0.061493	-0.010834	-0.002747	0.060577	-0.025024	0.10391	0.009308	0.017548	-0.071716	0.021973	0.011292	-0.001068	-0.09552	-0.26001	0.031586	0.006714	0.032196	-0.089874	0.029297	0.016785	-0.021362	0.52978	-0.010529	0.25009	0.002441	0.004272	-0.005341
54.401	0.009766	0.036011	-0.037537	0.010223	-0.004883	-0.044098	-0.022888	-0.002289	0.056458	-0.02655	0.078888	0.001221	-0.034027	-0.079193	0.2536	0.004578	-0.001373	-0.18768	-0.7872	0.002136	-0.009766	0.031128	-0.062256	0.007782	0.041656	-0.01236	0.31082	-0.003357	-0.42893	-0.19699	0.003052	-0.005646
54.402	0.010834	0.028839	-0.070343	0.014191	-0.014496	-0.016479	-0.014191	0.000916	0.057678	-0.026245	0.010071	-0.004272	-0.018005	-0.13031	0.055847	0.003967	0.005951	-0.11734	-0.10956	-0.097656	-0.017548	0.041199	-0.037689	0.044861	0.058746	0.005188	0.16129	-0.002289	-1.5233	-0.32059	0.004883	-0.007172
54.403	0.001678	0.010529	-0.06897	0.002747	-0.039825	0.007782	-0.022125	-0.00061	0.035248	-0.016022	-0.002747	-0.004578	-0.077362	-0.069885	-0.10956	0.01709	0.014954	-0.12909	-0.19608	-0.09491	-0.018158	0.050812	-0.007782	-0.007477	-0.032196	-0.001068	-0.086823	-0.00351	-1.9359	-0.14587	0.00412	-0.006104
54.404	0.000458	0.04715	-0.082397	0.001984	-0.028992	-0.01709	-0.031891	0.003357	0.046539	-0.033264	0.04715	-0.004425	-0.091858	-0.029297	-0.10208	-0.003357	0.020599	-0.18188	0.21164	-0.046387	-0.010376	0.056915	0.036163	-0.09201	-0.040894	0.005646	-0.23056	-0.004425	0.70709	0.010376	-0.002747	-0.003052
54.405	-0.00351	0.028381	-0.074005	-0.004425	0.016327	-0.020142	-0.012817	0.004425	0.042572	-0.050354	0.031128	-0.010681	-0.098114	-0.061646	0.14633	0.029602	0.009308	-0.16846	0.16998	-0.045166	-0.014954	0.055847	0.049591	-0.10696	-0.056	-0.005493	-0.35675	-0.000458	2.6778	0.072784	0.003357	-0.006409
54.406	0.002747	0.024109	-0.033875	0.001984	0.024719	0.012512	-0.000763	0.000916	0.026703	-0.05127	0.005951	-0.004578	-0.10574	-0.081482	-0.035095	0.023956	0.010376	-0.090332	0.45731	-0.10513	-0.011139	0.031738	0.036469	-0.18356	-0.0354	-0.020599	-0.17014	-0.005493	1.6513	0.10834	0.000153	-0.015259
54.407	-0.00061	0.031586	-0.041656	0.002899	0.009308	0.022583	-0.018005	0.002136	0.042419	-0.041351	0.005188	-0.011292	-0.10178	-0.080872	-0.054321	0.00473	-0.000305	-0.14694	-0.36041	-0.10407	-0.007629	0.030823	0.023651	-0.097198	0.037842	-0.022888	-0.12985	-0.009155	1.2508	0.18601	-0.000153	-0.010071
54.408	-0.004578	-0.01236	-0.007629	0.007629	0.015259	0.046997	-0.012817	0.002594	0.0383	-0.034943	0.021057	-0.007782	-0.079193	-0.16953	-0.20874	0.008698	0.011749	-0.083771	-0.31296	-0.15549	-0.016174	0.012207	0.16357	0.077362	0.003052	-0.015564	-0.1831	-0.006714	0.72189	0.075989	0.006409	-0.0177
54.409	0.002747	-0.018921	-0.034943	0.005035	-0.040894	0.010681	-0.019226	0.004272	0.034027	-0.015564	0.002136	-0.016632	-0.044403	-0.27878	0.13168	0.001526	0.017853	-0.049438	0.36255	-0.19211	-0.011597	0.020599	0.34683	0.10376	-0.076141	-0.015259	-0.18112	-0.004425	-0.55313	0.007324	0.003815	-0.021515
54.41	-0.004425	-0.027771	-0.057526	-0.003357	-0.053558	-0.037079	-0.028381	0.00885	0.039368	-0.009003	-0.013733	-0.010071	-0.032501	-0.20401	0.017853	0.010681	-0.002899	-0.09552	0.33951	-0.079803	-0.00824	0.019531	0.36133	0.060272	-0.071869	0.001526	-0.31418	-0.003204	-0.66132	-0.079041	-0.000305	-0.000916
54.411	-0.001831	-0.033569	-0.06012	0.000305	-0.019836	-0.030975	-0.002289	0.003357	0.053864	-0.018463	-0.036316	-0.010834	-0.025177	-0.16342	-0.05188	0.016479	0.003204	-0.077057	0.050812	0.004883	0.001678	0.029602	0.25207	0.026855	-0.086517	0.000763	-0.1564	0	-0.73135	-0.000763	0.001221	-0.012054
